<svg width="633" height="517" viewBox="0 0 633 517" fill="none" xmlns="http://www.w3.org/2000/svg">
<g clip-path="url(#clip0_28_133)">
<path d="M104.115 502.753L114.686 502.752L119.715 461.977H104.113L104.115 502.753Z" fill="#9E616A" fill-opacity="0.7"/>
<path d="M101.418 499.301L104.394 499.301L116.011 494.577L122.237 499.3H122.238C125.756 499.301 129.131 500.698 131.619 503.186C134.107 505.675 135.505 509.049 135.505 512.568V512.999L101.419 513L101.418 499.301Z" fill="#2F2E41" fill-opacity="0.7"/>
<path d="M153.229 502.753L163.8 502.752L168.829 461.977H153.227L153.229 502.753Z" fill="#9E616A" fill-opacity="0.7"/>
<path d="M150.531 499.301L153.507 499.301L165.124 494.577L171.35 499.3H171.351C174.87 499.301 178.244 500.698 180.732 503.186C183.22 505.675 184.618 509.049 184.619 512.568V512.999L150.532 513L150.531 499.301Z" fill="#2F2E41" fill-opacity="0.7"/>
<path d="M161.678 279.609L78.6191 281.776L80.0636 322.222C80.0636 322.222 78.6191 333.055 81.5081 335.944C84.3971 338.833 85.8416 338.833 84.3971 343.889C82.9526 348.945 90.5846 357.202 89.6576 358.129C88.7306 359.056 86.5639 364.112 86.5639 364.112L93.7863 405.28C93.7863 405.28 98.8421 476.783 100.287 478.227C101.731 479.672 103.176 478.227 101.731 481.839C100.287 485.45 98.8421 484.005 100.287 485.45C101.566 486.829 102.772 488.276 103.898 489.783H121.36C121.36 489.783 122.676 482.561 122.676 481.839C122.676 481.116 124.121 476.783 124.121 476.061C124.121 475.338 122.844 474.062 122.844 474.062C122.403 472.593 122.105 471.086 121.954 469.56C121.954 468.116 117.621 412.503 117.621 412.503L126.288 340.278L147.233 411.058C147.233 411.058 147.233 473.172 148.677 474.616C150.122 476.061 150.122 475.338 149.4 478.227C148.677 481.116 145.788 480.394 147.955 482.561C150.122 484.728 150.844 481.116 150.122 484.728L149.4 488.339L171.067 488.649C171.067 488.649 173.956 482.561 172.512 480.394C171.067 478.227 171.154 478.819 172.916 475.273C174.678 471.727 175.401 471.005 174.678 470.283C173.956 469.56 173.956 465.719 173.956 465.719L170.345 396.613C170.345 396.613 169.623 323.666 169.623 321.499C169.568 320.384 169.773 319.272 170.223 318.25V315.309L167.456 304.888L161.678 279.609Z" fill="#2F2E41" fill-opacity="0.7"/>
<path d="M255.676 122.084C255.277 123.194 254.639 124.202 253.808 125.039C252.977 125.875 251.973 126.519 250.866 126.925C249.759 127.332 248.576 127.49 247.402 127.39C246.227 127.29 245.088 126.933 244.066 126.346L208.012 156.551L206.053 141.787L241.317 114.792C242.418 113.14 244.087 111.95 246.007 111.446C247.927 110.943 249.965 111.161 251.735 112.06C253.505 112.959 254.884 114.476 255.61 116.323C256.336 118.171 256.36 120.221 255.676 122.084V122.084Z" fill="#9E616A"/>
<path d="M96.6964 134.55C109.062 134.55 119.086 124.526 119.086 112.161C119.086 99.7952 109.062 89.771 96.6964 89.771C84.3309 89.771 74.3066 99.7952 74.3066 112.161C74.3066 124.526 84.3309 134.55 96.6964 134.55Z" fill="#9E616A" fill-opacity="0.7"/>
<path d="M114.848 89.8781C112.764 84.9099 103.831 81.9601 89.6952 82.4044C75.5597 82.8486 73.0843 99.7054 73.0843 99.7054C65.2985 106.962 77.8685 129.619 80.0493 126.496C82.2301 123.372 85.8916 126.325 85.8916 126.325L82.4022 106.698C86.0871 108.115 90.05 109.067 93.5159 107.416L87.7734 104.345C92.5328 104.937 97.2921 105.53 102.052 106.122L96.1632 101.592C96.306 101.545 96.4487 101.496 96.5915 101.448C98.9529 102.466 101.482 103.04 104.051 103.141C107.053 103.119 110.244 101.712 111.502 98.9863C111.836 98.2378 112.017 97.4299 112.035 96.6102C116.174 97.9541 118.347 102.803 118.347 102.803C117.561 98.4007 116.39 94.0757 114.848 89.8781V89.8781Z" fill="#2F2E41" fill-opacity="0.7"/>
<path d="M114.618 135.552C109.618 135.552 106.398 136.242 98.6175 137.552C84.2576 139.972 92.8576 153.616 92.8576 153.616C92.8576 153.616 93.5076 153.286 91.7476 153.616C89.9876 153.946 83.9876 159.136 83.9876 159.136L73.2576 168.666C57.0876 181.356 60.7076 201.156 60.7076 201.156L84.2876 224.886L73.9576 272.496C73.9576 272.496 78.3476 279.566 76.0775 282.736C73.8074 285.906 96.0775 284.996 96.0775 284.996C111.448 291.846 165.597 286.056 165.597 286.056C164.847 284.096 157.597 268.906 157.597 268.906C160.747 263.466 157.747 255.606 157.747 255.606C157.747 255.606 154.617 218.426 152.617 213.286C150.617 208.146 157.738 180.296 162.418 180.596C167.097 180.896 197.328 165.476 197.328 165.476C197.328 165.476 196.568 164.266 206.548 160.186C212.28 157.934 217.535 154.619 222.038 150.416L226.138 142.226C224.168 142.986 217.518 130.446 217.518 130.446L214.617 131.552L212.938 131.066C212.938 131.066 199.827 134.796 197.147 137.516C194.467 140.236 193.567 139.476 191.147 140.086C188.727 140.696 188.428 142.396 187.668 142.206C186.908 142.016 185.557 144.316 184.497 144.016C183.437 143.716 181.167 144.926 179.657 145.226C178.147 145.526 167.418 150.066 167.418 150.066C160.778 146.706 142.777 148.066 142.777 148.066C142.777 148.066 136.887 144.596 135.217 148.066C134.768 149.052 134.047 149.889 133.138 150.479C132.229 151.069 131.171 151.387 130.087 151.396L122.907 148.326C122.49 149.849 114.659 133.973 114.618 135.552Z" fill="#6C63FF" fill-opacity="0.7"/>
<path d="M80.3391 321.885C79.555 321.004 78.9734 319.963 78.6354 318.833C78.2974 317.703 78.2111 316.514 78.3827 315.347C78.5543 314.18 78.9796 313.066 79.6287 312.081C80.2777 311.097 81.1347 310.267 82.1392 309.65L71.9668 269.661L85.8744 274.99L93.6037 312.752C94.5289 314.508 94.7778 316.543 94.3031 318.47C93.8284 320.398 92.6631 322.084 91.0281 323.21C89.3931 324.336 87.4019 324.823 85.4319 324.578C83.4618 324.334 81.6498 323.376 80.3391 321.885V321.885Z" fill="#9E616A" fill-opacity="0.7"/>
<path d="M61.6178 193.552L60.3616 209.52C60.3616 209.52 58.8 227.064 59.2089 230.308C59.6178 233.552 60.3792 253.363 60.3792 253.363L73.6178 279.552L88.6178 275.552L87.7201 263.266L88.6178 274.552L90.6178 264.552L85.6178 247.552L88.6178 241.552L87.1049 221.411L61.6178 193.552Z" fill="#6C63FF" fill-opacity="0.7"/>
<path d="M525.434 390.71H460.768C459.044 390.708 457.392 390.023 456.174 388.804C454.955 387.585 454.27 385.933 454.268 384.21V328.21C454.27 326.487 454.955 324.835 456.174 323.616C457.392 322.397 459.044 321.712 460.768 321.71H525.434C527.157 321.712 528.81 322.397 530.028 323.616C531.247 324.835 531.932 326.487 531.934 328.21V384.21C531.932 385.933 531.247 387.585 530.028 388.804C528.81 390.023 527.157 390.708 525.434 390.71V390.71Z" fill="black"/>
<path d="M525.434 319.71H460.768C459.044 319.708 457.392 319.023 456.174 317.804C454.955 316.585 454.27 314.933 454.268 313.21V257.21C454.27 255.487 454.955 253.835 456.174 252.616C457.392 251.397 459.044 250.712 460.768 250.71H525.434C527.157 250.712 528.81 251.397 530.028 252.616C531.247 253.835 531.932 255.487 531.934 257.21V313.21C531.932 314.933 531.247 316.585 530.028 317.804C528.81 319.023 527.157 319.708 525.434 319.71V319.71Z" fill="black"/>
<path d="M525.434 461.71H460.768C459.044 461.708 457.392 461.023 456.174 459.804C454.955 458.585 454.27 456.933 454.268 455.21V399.21C454.27 397.487 454.955 395.835 456.174 394.616C457.392 393.397 459.044 392.712 460.768 392.71H525.434C527.157 392.712 528.81 393.397 530.028 394.616C531.247 395.835 531.932 397.487 531.934 399.21V455.21C531.932 456.933 531.247 458.585 530.028 459.804C528.81 461.023 527.157 461.708 525.434 461.71Z" fill="black"/>
<path d="M445.767 461.71H381.1C379.376 461.708 377.724 461.023 376.506 459.804C375.287 458.585 374.602 456.933 374.6 455.21V399.21C374.602 397.487 375.287 395.835 376.506 394.616C377.724 393.397 379.376 392.712 381.1 392.71H445.767C447.49 392.712 449.142 393.397 450.361 394.616C451.579 395.835 452.265 397.487 452.267 399.21V455.21C452.265 456.933 451.579 458.585 450.361 459.804C449.142 461.023 447.49 461.708 445.767 461.71V461.71Z" fill="black"/>
<path d="M621.619 319.71H540.434C538.71 319.708 537.058 319.023 535.84 317.804C534.621 316.585 533.936 314.933 533.934 313.21V257.21C533.936 255.487 534.621 253.835 535.84 252.616C537.058 251.397 538.71 250.712 540.434 250.71H621.619C623.342 250.712 624.994 251.397 626.213 252.616C627.431 253.835 628.117 255.487 628.119 257.21V313.21C628.117 314.933 627.431 316.585 626.213 317.804C624.994 319.023 623.342 319.708 621.619 319.71V319.71Z" fill="black"/>
<path d="M292.434 248.21V248H295.434V248.21H372.101V248H375.101V248.21H451.768V248.646H454.768V248.21H531.434V248.646H534.434V248.21H627.619V36.6102C627.619 31.8025 626.672 27.0419 624.832 22.6001C622.993 18.1584 620.296 14.1225 616.896 10.7229C613.497 7.32331 609.461 4.62663 605.019 2.78679C600.577 0.946951 595.817 0 591.009 0H234.229C224.52 2.65216e-06 215.208 3.85714 208.342 10.7229C201.476 17.5886 197.619 26.9006 197.619 36.6102V248.21H292.434Z" fill="#6C63FF" fill-opacity="0.9"/>
<path d="M621.619 321.71H540.434C536.85 321.71 533.934 327.639 533.934 334.926V455.21C533.936 456.604 534.385 457.961 535.216 459.081C536.047 460.2 537.215 461.023 538.549 461.429C539.111 461.793 539.764 461.99 540.434 462H621.619C622.288 461.99 622.941 461.793 623.503 461.429C624.837 461.023 626.005 460.2 626.836 459.081C627.667 457.961 628.117 456.604 628.119 455.21V334.926C628.119 327.639 625.203 321.71 621.619 321.71Z" fill="black"/>
<path d="M595.3 390.1C595.3 389.45 594.95 389.1 594.3 389.1H583.75V378.55C583.75 377.9 583.4 377.55 582.75 377.55H578.05C577.4 377.55 577.05 377.9 577.05 378.55V389.1H566.5C565.85 389.1 565.5 389.45 565.5 390.1V394.8C565.5 395.45 565.85 395.8 566.5 395.8H577.05V406.35C577.05 407 577.4 407.35 578.05 407.35H582.75C583.4 407.35 583.75 407 583.75 406.35V395.8H594.3C594.95 395.8 595.3 395.45 595.3 394.8V390.1Z" fill="white"/>
<path d="M286.434 461.71H203.619C201.896 461.708 200.244 461.023 199.025 459.804C197.807 458.585 197.121 456.933 197.119 455.21V399.21C197.121 397.487 197.807 395.835 199.025 394.616C200.244 393.397 201.896 392.712 203.619 392.71H286.434C288.157 392.712 289.81 393.397 291.028 394.616C292.247 395.835 292.932 397.487 292.934 399.21V455.21C292.932 456.933 292.247 458.585 291.028 459.804C289.81 461.023 288.157 461.708 286.434 461.71Z" fill="black"/>
<path d="M286.434 390.71H203.619C201.896 390.708 200.244 390.023 199.025 388.804C197.807 387.585 197.121 385.933 197.119 384.21V328.21C197.121 326.487 197.807 324.835 199.025 323.616C200.244 322.397 201.896 321.712 203.619 321.71H286.434C288.157 321.712 289.81 322.397 291.028 323.616C292.247 324.835 292.932 326.487 292.934 328.21V384.21C292.932 385.933 292.247 387.585 291.028 388.804C289.81 390.023 288.157 390.708 286.434 390.71V390.71Z" fill="black"/>
<path d="M534.434 465.21V463.984H531.434V465.21H454.768V465.984H451.768V465.21H375.101V465.984H372.101V465.21H295.434V465.984H292.434V465.21H197.619V476.39C197.619 486.099 201.476 495.411 208.342 502.277C215.208 509.143 224.52 513 234.229 513H591.009C600.719 513 610.03 509.143 616.896 502.277C623.762 495.411 627.619 486.099 627.619 476.39V465.21H534.434Z" fill="#6C63FF" fill-opacity="0.9"/>
<path d="M286.434 319.71H203.619C201.896 319.708 200.244 319.023 199.025 317.804C197.807 316.585 197.121 314.933 197.119 313.21V257.21C197.121 255.487 197.807 253.835 199.025 252.616C200.244 251.397 201.896 250.712 203.619 250.71H286.434C288.157 250.712 289.81 251.397 291.028 252.616C292.247 253.835 292.932 255.487 292.934 257.21V313.21C292.932 314.933 292.247 316.585 291.028 317.804C289.81 319.023 288.157 319.708 286.434 319.71Z" fill="black"/>
<path d="M366.1 390.71H301.434C299.71 390.708 298.058 390.023 296.84 388.804C295.621 387.585 294.936 385.933 294.934 384.21V328.21C294.936 326.487 295.621 324.835 296.84 323.616C298.058 322.397 299.71 321.712 301.434 321.71H366.1C367.823 321.712 369.476 322.397 370.694 323.616C371.913 324.835 372.598 326.487 372.6 328.21V384.21C372.598 385.933 371.913 387.585 370.694 388.804C369.476 390.023 367.823 390.708 366.1 390.71V390.71Z" fill="black"/>
<path d="M366.1 461.71H301.434C299.71 461.708 298.058 461.023 296.84 459.804C295.621 458.585 294.936 456.933 294.934 455.21V399.21C294.936 397.487 295.621 395.835 296.84 394.616C298.058 393.397 299.71 392.712 301.434 392.71H366.1C367.823 392.712 369.476 393.397 370.694 394.616C371.913 395.835 372.598 397.487 372.6 399.21V455.21C372.598 456.933 371.913 458.585 370.694 459.804C369.476 461.023 367.823 461.708 366.1 461.71Z" fill="black"/>
<path d="M445.767 319.71H381.1C379.376 319.708 377.724 319.023 376.506 317.804C375.287 316.585 374.602 314.933 374.6 313.21V257.21C374.602 255.487 375.287 253.835 376.506 252.616C377.724 251.397 379.376 250.712 381.1 250.71H445.767C447.49 250.712 449.142 251.397 450.361 252.616C451.579 253.835 452.265 255.487 452.267 257.21V313.21C452.265 314.933 451.579 316.585 450.361 317.804C449.142 319.023 447.49 319.708 445.767 319.71V319.71Z" fill="black"/>
<path d="M445.767 390.71H381.1C379.376 390.708 377.724 390.023 376.506 388.804C375.287 387.585 374.602 385.933 374.6 384.21V328.21C374.602 326.487 375.287 324.835 376.506 323.616C377.724 322.397 379.376 321.712 381.1 321.71H445.767C447.49 321.712 449.142 322.397 450.361 323.616C451.579 324.835 452.265 326.487 452.267 328.21V384.21C452.265 385.933 451.579 387.585 450.361 388.804C449.142 390.023 447.49 390.708 445.767 390.71V390.71Z" fill="black"/>
<path d="M366.1 319.71H301.434C299.71 319.708 298.058 319.023 296.84 317.804C295.621 316.585 294.936 314.933 294.934 313.21V257.21C294.936 255.487 295.621 253.835 296.84 252.616C298.058 251.397 299.71 250.712 301.434 250.71H366.1C367.823 250.712 369.476 251.397 370.694 252.616C371.913 253.835 372.598 255.487 372.6 257.21V313.21C372.598 314.933 371.913 316.585 370.694 317.804C369.476 319.023 367.823 319.708 366.1 319.71Z" fill="black"/>
<path d="M556.907 166.5H273.332C266.912 166.493 260.758 163.939 256.219 159.4C251.68 154.861 249.126 148.707 249.119 142.288V79.7124C249.126 73.2931 251.68 67.1389 256.219 62.5997C260.758 58.0606 266.912 55.5073 273.332 55.5H556.907C563.326 55.5073 569.48 58.0606 574.019 62.5997C578.559 67.1389 581.112 73.2931 581.119 79.7124V142.288C581.112 148.707 578.559 154.861 574.019 159.4C569.48 163.939 563.326 166.493 556.907 166.5V166.5Z" fill="black"/>
<path d="M462.119 147.5H401.119C399.793 147.5 398.521 146.973 397.584 146.036C396.646 145.098 396.119 143.826 396.119 142.5C396.119 141.174 396.646 139.902 397.584 138.964C398.521 138.027 399.793 137.5 401.119 137.5H462.119C463.445 137.5 464.717 138.027 465.655 138.964C466.592 139.902 467.119 141.174 467.119 142.5C467.119 143.826 466.592 145.098 465.655 146.036C464.717 146.973 463.445 147.5 462.119 147.5Z" fill="#6C63FF"/>
<path d="M546.119 148H485.119C483.793 148 482.521 147.473 481.584 146.536C480.646 145.598 480.119 144.326 480.119 143C480.119 141.674 480.646 140.402 481.584 139.464C482.521 138.527 483.793 138 485.119 138H546.119C547.445 138 548.717 138.527 549.655 139.464C550.592 140.402 551.119 141.674 551.119 143C551.119 144.326 550.592 145.598 549.655 146.536C548.717 147.473 547.445 148 546.119 148Z" fill="#6C63FF"/>
<path d="M376.119 148H315.119C313.793 148 312.521 147.473 311.584 146.536C310.646 145.598 310.119 144.326 310.119 143C310.119 141.674 310.646 140.402 311.584 139.464C312.521 138.527 313.793 138 315.119 138H376.119C377.445 138 378.717 138.527 379.655 139.464C380.592 140.402 381.119 141.674 381.119 143C381.119 144.326 380.592 145.598 379.655 146.536C378.717 147.473 377.445 148 376.119 148Z" fill="#6C63FF"/>
<path d="M57.3305 460.618L56.3328 438.183C45.9317 432.624 34.3307 429.687 22.5371 429.628C38.7686 442.899 36.7401 468.48 47.7447 486.325C51.2195 491.865 55.8965 496.551 61.4288 500.038C66.9612 503.524 73.2072 505.721 79.7039 506.465L93.287 514.782C95.1508 504.391 94.7399 493.72 92.0825 483.504C89.4252 473.287 84.5845 463.768 77.8941 455.603C74.0955 451.059 69.7397 447.012 64.9297 443.557C61.6765 452.135 57.3305 460.618 57.3305 460.618Z" fill="#F2F2F2"/>
<path d="M5.2696e-06 515.356C-0.0004608 515.512 0.0299936 515.667 0.0896354 515.812C0.149277 515.957 0.236908 516.088 0.347509 516.199C0.45811 516.309 0.589511 516.397 0.734106 516.456C0.8787 516.516 1.03366 516.546 1.19007 516.546H631.48C631.796 516.546 632.098 516.421 632.322 516.197C632.545 515.974 632.67 515.672 632.67 515.356C632.67 515.04 632.545 514.738 632.322 514.515C632.098 514.291 631.796 514.166 631.48 514.166H1.19001C1.03361 514.166 0.87863 514.196 0.734045 514.256C0.589459 514.315 0.458102 514.403 0.347509 514.514C0.236915 514.624 0.149275 514.756 0.0896354 514.9C0.0299955 515.045 -0.000455452 515.2 5.2696e-06 515.356V515.356Z" fill="#CCCCCC"/>
<path d="M568 283H598" stroke="white" stroke-width="5"/>
<path d="M477 283C488.721 283 495.283 283 507 283" stroke="white" stroke-width="5"/>
<path d="M506.3 416.05C506.3 415.4 505.95 415.05 505.3 415.05H477.5C476.85 415.05 476.5 415.4 476.5 416.05V420.75C476.5 421.4 476.85 421.75 477.5 421.75H505.3C505.95 421.75 506.3 421.4 506.3 420.75V416.05ZM506.35 426.9C506.35 426.25 506 425.9 505.35 425.9H477.55C476.9 425.9 476.55 426.25 476.55 426.9V431.6C476.55 432.25 476.9 432.6 477.55 432.6H505.35C506 432.6 506.35 432.25 506.35 431.6V426.9Z" fill="white"/>
<path d="M495.1 342L494.1 351.6L503.7 348.9L504.4 353.5L495.2 354.25L501.15 362.15L496.85 364.5L492.6 355.75L488.75 364.5L484.3 362.15L490.15 354.25L481.05 353.5L481.75 348.9L491.25 351.6L490.2 342H495.1Z" fill="white"/>
<circle cx="491" cy="293" r="4" fill="white"/>
<circle cx="491" cy="271" r="4" fill="white"/>
<path d="M242.07 415.75C241.68 415.78 241.5 415.99 241.5 416.38V419.26C241.5 419.65 241.74 419.86 242.13 419.8L243.99 419.56V438.52C243.99 438.82 244.14 439 244.47 439H247.59C247.89 439 248.07 438.82 248.07 438.52V415.48C248.07 415.18 247.89 415 247.59 415L242.07 415.75Z" fill="white"/>
<path d="M341.69 427.51C342.26 427.21 342.5 426.97 342.5 426.4V419.32C342.5 416.5 340.97 415 338.18 415H334.82C332 415 330.5 416.5 330.5 419.32V422.5C330.5 422.8 330.65 422.98 330.98 422.98H334.1C334.4 422.98 334.58 422.8 334.58 422.5V420.16C334.58 419.38 334.97 418.96 335.78 418.96H337.22C337.97 418.96 338.42 419.38 338.42 420.16V424.6L331.28 428.44C330.71 428.74 330.5 428.98 330.5 429.55V438.4C330.5 438.79 330.71 439 331.1 439H341.9C342.29 439 342.5 438.79 342.5 438.4V433.81C342.5 433.42 342.29 433.21 341.9 433.21H339.02C338.63 433.21 338.42 433.42 338.42 433.81V435.04H335.18C334.79 435.04 334.58 434.83 334.58 434.44V431.83C334.58 431.5 334.7 431.29 335 431.11L341.69 427.51Z" fill="white"/>
<path d="M421.53 422.32C421.53 419.5 420 418 417.18 418H413.7C410.97 418 409.5 419.38 409.5 421.96V423.19C409.5 423.58 409.71 423.79 410.1 423.79H412.98C413.37 423.79 413.58 423.58 413.58 423.19V421.96H416.94C417.33 421.96 417.54 422.17 417.54 422.56V426.85C417.54 427.6 417.12 428.02 416.34 428.02H412.8C412.41 428.02 412.2 428.23 412.2 428.62V431.38C412.2 431.77 412.41 431.98 412.8 431.98H416.34C417.15 431.98 417.54 432.4 417.54 433.18V437.44C417.54 437.83 417.33 438.04 416.94 438.04H413.58V436.81C413.58 436.42 413.37 436.21 412.98 436.21H410.1C409.71 436.21 409.5 436.42 409.5 436.81V437.8C409.5 440.53 410.97 442 413.7 442H417.18C420 442 421.53 440.5 421.53 437.68V432.16C421.53 431.05 420.72 430.21 419.64 430.03V429.97C420.72 429.79 421.53 428.95 421.53 427.84V422.32Z" fill="white"/>
<path d="M422.52 361.14V357.6C422.52 357.21 422.31 357 421.92 357H419.31C418.92 357 418.71 357.21 418.71 357.6V361.2H414.15L421.68 348.72C421.95 348.3 421.77 348 421.29 348H418.14C417.81 348 417.57 348.12 417.42 348.39L409.71 360.87C409.56 361.11 409.5 361.32 409.5 361.59V364.26C409.5 364.65 409.71 364.86 410.1 364.86H418.71V371.4C418.71 371.79 418.92 372 419.31 372H421.92C422.31 372 422.52 371.79 422.52 371.4V364.92H423.75C424.14 364.92 424.35 364.71 424.35 364.32V361.74C424.35 361.35 424.14 361.14 423.75 361.14H422.52Z" fill="white"/>
<path d="M409.98 273C409.68 273.03 409.5 273.18 409.5 273.51V276.51C409.5 276.81 409.68 276.99 409.98 276.99H417.09L409.68 296.31C409.53 296.73 409.71 297 410.16 297L413.28 296.97C413.64 296.97 413.85 296.82 413.97 296.49L422.73 273.72C422.88 273.3 422.76 273 422.28 273H409.98Z" fill="white"/>
<path d="M331.4 348C331.01 348 330.8 348.21 330.8 348.6V359.04C330.8 359.37 330.95 359.58 331.31 359.7L338.45 361.95V367.44C338.45 367.83 338.24 368.04 337.85 368.04H334.58V366.84C334.58 366.45 334.37 366.24 333.98 366.24H331.1C330.71 366.24 330.5 366.45 330.5 366.84V367.8C330.5 370.53 331.97 372 334.7 372H338.3C341.03 372 342.5 370.53 342.5 367.8V359.58C342.5 359.25 342.35 359.04 341.99 358.92L334.85 356.67V351.96H341.6C341.99 351.96 342.2 351.75 342.2 351.36V348.6C342.2 348.21 341.99 348 341.6 348H331.4Z" fill="white"/>
<path d="M342.53 277.32C342.53 274.5 341 273 338.18 273H334.85C332.03 273 330.5 274.5 330.5 277.32V282.84C330.5 283.95 331.31 284.79 332.39 284.97V285.03C331.31 285.21 330.5 286.05 330.5 287.16V292.68C330.5 295.5 332.03 297 334.85 297H338.18C341 297 342.53 295.5 342.53 292.68V287.16C342.53 286.05 341.72 285.21 340.64 285.03V284.97C341.72 284.79 342.53 283.95 342.53 282.84V277.32ZM338.54 281.85C338.54 282.6 338.12 283.02 337.34 283.02H335.69C334.91 283.02 334.49 282.6 334.49 281.85V278.16C334.49 277.38 334.88 276.96 335.69 276.96H337.34C338.15 276.96 338.54 277.38 338.54 278.16V281.85ZM338.54 291.84C338.54 292.65 338.12 293.04 337.34 293.04H335.69C334.91 293.04 334.49 292.65 334.49 291.84V288.18C334.49 287.4 334.88 286.98 335.69 286.98H337.34C338.15 286.98 338.54 287.4 338.54 288.18V291.84Z" fill="white"/>
<path d="M246.69 357.27L250.32 348.69C250.5 348.27 250.32 348 249.87 348H246.75C246.39 348 246.18 348.15 246.06 348.45L241.8 358.59C241.59 359.13 241.5 359.52 241.5 360.09V367.8C241.5 370.53 242.97 372 245.7 372H249.3C252.03 372 253.5 370.53 253.5 367.8V361.47C253.5 358.74 252.03 357.27 249.3 357.27H246.69ZM246.66 368.04C245.88 368.04 245.46 367.62 245.46 366.84V362.43C245.46 361.65 245.88 361.23 246.66 361.23H248.34C249.12 361.23 249.54 361.65 249.54 362.43V366.84C249.54 367.62 249.12 368.04 248.34 368.04H246.66Z" fill="white"/>
<path d="M248.31 287.73L244.68 296.31C244.5 296.73 244.68 297 245.13 297H248.25C248.61 297 248.82 296.85 248.94 296.55L253.2 286.41C253.41 285.87 253.5 285.48 253.5 284.91V277.2C253.5 274.47 252.03 273 249.3 273H245.7C242.97 273 241.5 274.47 241.5 277.2V283.53C241.5 286.26 242.97 287.73 245.7 287.73H248.31ZM248.34 276.96C249.12 276.96 249.54 277.38 249.54 278.16V282.57C249.54 283.35 249.12 283.77 248.34 283.77H246.66C245.88 283.77 245.46 283.35 245.46 282.57V278.16C245.46 277.38 245.88 276.96 246.66 276.96H248.34Z" fill="white"/>
<path d="M537.8 112.816C537.8 116.2 539.6 118 542.984 118H547.016C550.4 118 552.2 116.2 552.2 112.816V94.384C552.2 91 550.4 89.2 547.016 89.2H542.984C539.6 89.2 537.8 91 537.8 94.384V112.816ZM544.028 113.356C543.092 113.356 542.588 112.888 542.588 111.916V95.284C542.588 94.348 543.092 93.844 544.028 93.844H546.116C547.052 93.844 547.556 94.348 547.556 95.284V111.916C547.556 112.888 547.052 113.356 546.116 113.356H544.028Z" fill="white"/>
<circle cx="560.5" cy="114.5" r="1.5" fill="white"/>
</g>
<defs>
<clipPath id="clip0_28_133">
<rect width="632.67" height="516.546" fill="white"/>
</clipPath>
</defs>
</svg>
