<svg width="467" height="88" viewBox="0 0 467 88" fill="none" xmlns="http://www.w3.org/2000/svg">
<g filter="url(#filter0_d_21_8)">
<rect x="5" y="8" width="157" height="10" rx="3" fill="#FF0000"/>
</g>
<g filter="url(#filter1_d_21_8)">
<rect x="304" y="71" width="157" height="10" rx="3" fill="#FF0000"/>
</g>
<g filter="url(#filter2_d_21_8)">
<path d="M54.026 68C55.098 68 55.5 67.33 55.031 66.459L42.904 42.741L54.294 22.708C54.83 21.837 54.361 21.1 53.356 21.1H46.321C45.584 21.1 45.115 21.502 44.78 22.105L34.462 39.86V22.44C34.462 21.569 33.993 21.1 33.122 21.1H26.69C25.819 21.1 25.35 21.569 25.35 22.44V66.66C25.35 67.531 25.819 68 26.69 68H33.122C33.993 68 34.462 67.531 34.462 66.66V55.203L36.941 50.446L45.383 66.995C45.718 67.665 46.12 68 46.924 68H54.026ZM80.5669 21.1C79.8299 21.1 79.2269 21.703 79.2269 22.44V56.476C79.2269 58.285 78.2889 59.156 76.5469 59.156H73.0629C71.3209 59.156 70.3829 58.285 70.3829 56.476V22.44C70.3829 21.703 69.7799 21.1 69.0429 21.1H62.6109C61.8739 21.1 61.2709 21.703 61.2709 22.44V58.352C61.2709 64.65 64.6209 68 70.9189 68H78.4229C84.7209 68 88.0709 64.65 88.0709 58.352V22.44C88.0709 21.703 87.4679 21.1 86.7309 21.1H80.5669ZM122.777 21.1C121.973 21.1 121.504 21.502 121.303 22.239L113.866 52.121L106.429 22.239C106.228 21.502 105.759 21.1 104.955 21.1H96.1109C95.2399 21.1 94.7709 21.569 94.7709 22.44V66.66C94.7709 67.531 95.2399 68 96.1109 68H102.275C103.146 68 103.615 67.531 103.615 66.66V40.329H104.084L110.382 66.861C110.583 67.598 111.052 68 111.856 68H115.809C116.613 68 117.082 67.598 117.283 66.861L123.581 40.329H124.05V66.66C124.05 67.531 124.519 68 125.39 68H131.621C132.492 68 132.961 67.531 132.961 66.66V22.44C132.961 21.569 132.492 21.1 131.621 21.1H122.777ZM166.523 30.748C166.523 24.45 163.106 21.1 156.808 21.1H140.728C140.058 21.1 139.656 21.435 139.656 22.172V66.928C139.656 67.598 140.058 68 140.728 68H156.808C163.106 68 166.523 64.65 166.523 58.352V49.441C166.523 46.962 164.714 45.086 162.302 44.684V44.55C164.714 44.148 166.523 42.272 166.523 39.793V30.748ZM158.014 37.582C158.014 39.257 157.076 40.195 155.334 40.195H147.964V29.542H155.334C157.143 29.542 158.014 30.48 158.014 32.222V37.582ZM158.014 56.878C158.014 58.687 157.076 59.558 155.334 59.558H147.964V49.039H155.334C157.143 49.039 158.014 49.977 158.014 51.719V56.878ZM203.537 68C204.341 68 204.676 67.598 204.475 66.861L193.353 22.038C193.219 21.368 192.817 21.1 192.214 21.1H182.901C182.298 21.1 181.896 21.368 181.762 22.038L170.64 66.861C170.439 67.598 170.773 68 171.511 68H178.077C178.68 68 179.015 67.665 179.149 67.062L181.226 58.62H193.822L195.966 67.062C196.1 67.665 196.435 68 197.038 68H203.537ZM191.745 50.848H183.303L187.524 32.624L191.745 50.848ZM236.625 21.1C235.821 21.1 235.352 21.502 235.151 22.239L227.714 52.121L220.277 22.239C220.076 21.502 219.607 21.1 218.803 21.1H209.959C209.088 21.1 208.619 21.569 208.619 22.44V66.66C208.619 67.531 209.088 68 209.959 68H216.123C216.994 68 217.463 67.531 217.463 66.66V40.329H217.932L224.23 66.861C224.431 67.598 224.9 68 225.704 68H229.657C230.461 68 230.93 67.598 231.131 66.861L237.429 40.329H237.898V66.66C237.898 67.531 238.367 68 239.238 68H245.469C246.34 68 246.809 67.531 246.809 66.66V22.44C246.809 21.569 246.34 21.1 245.469 21.1H236.625ZM279.901 21.1C273.67 21.1 270.253 24.45 270.253 30.748V42.339C270.253 43.612 270.856 44.416 272.062 44.818L288.142 50.044V56.811C288.142 58.62 287.204 59.491 285.462 59.491H281.844C280.169 59.491 279.164 58.62 279.164 56.811V53.997C279.164 53.26 278.829 52.925 278.092 52.925H271.325C270.655 52.925 270.253 53.26 270.253 53.997V58.352C270.253 64.65 273.67 68 279.901 68H287.405C293.703 68 297.053 64.65 297.053 58.352V45.756C297.053 44.483 296.45 43.679 295.311 43.277L279.097 38.051V32.356C279.097 30.614 280.102 29.676 281.777 29.676H285.462C287.271 29.676 288.142 30.614 288.142 32.356V35.17C288.142 35.84 288.544 36.242 289.214 36.242H295.981C296.718 36.242 297.053 35.84 297.053 35.17V30.748C297.053 24.45 293.703 21.1 287.405 21.1H279.901ZM321.441 40.262H312.865V22.172C312.865 21.502 312.463 21.1 311.793 21.1H304.892C304.088 21.1 303.753 21.502 303.753 22.172V66.928C303.753 67.598 304.088 68 304.892 68H311.793C312.463 68 312.865 67.598 312.865 66.928V49.106H321.441V66.928C321.441 67.598 321.843 68 322.513 68H329.414C330.218 68 330.553 67.598 330.553 66.928V22.172C330.553 21.502 330.218 21.1 329.414 21.1H322.513C321.843 21.1 321.441 21.502 321.441 22.172V40.262ZM360.569 21.1C359.765 21.1 359.296 21.502 359.028 22.172L351.524 39.391L344.02 22.172C343.752 21.502 343.283 21.1 342.479 21.1H335.779C334.774 21.1 334.305 21.77 334.707 22.641L346.968 50.446V66.66C346.968 67.531 347.437 68 348.308 68H354.74C355.611 68 356.08 67.531 356.08 66.66V50.446L368.341 22.641C368.743 21.77 368.274 21.1 367.269 21.1H360.569ZM398.124 68C398.928 68 399.263 67.598 399.062 66.861L387.94 22.038C387.806 21.368 387.404 21.1 386.801 21.1H377.488C376.885 21.1 376.483 21.368 376.349 22.038L365.227 66.861C365.026 67.598 365.361 68 366.098 68H372.664C373.267 68 373.602 67.665 373.736 67.062L375.813 58.62H388.409L390.553 67.062C390.687 67.665 391.022 68 391.625 68H398.124ZM386.332 50.848H377.89L382.111 32.624L386.332 50.848ZM431.212 21.1C430.408 21.1 429.939 21.502 429.738 22.239L422.301 52.121L414.864 22.239C414.663 21.502 414.194 21.1 413.39 21.1H404.546C403.675 21.1 403.206 21.569 403.206 22.44V66.66C403.206 67.531 403.675 68 404.546 68H410.71C411.581 68 412.05 67.531 412.05 66.66V40.329H412.519L418.817 66.861C419.018 67.598 419.487 68 420.291 68H424.244C425.048 68 425.517 67.598 425.718 66.861L432.016 40.329H432.485V66.66C432.485 67.531 432.954 68 433.825 68H440.056C440.927 68 441.396 67.531 441.396 66.66V22.44C441.396 21.569 440.927 21.1 440.056 21.1H431.212Z" fill="#333333"/>
</g>
<defs>
<filter id="filter0_d_21_8" x="0" y="0" width="165" height="18" filterUnits="userSpaceOnUse" color-interpolation-filters="sRGB">
<feFlood flood-opacity="0" result="BackgroundImageFix"/>
<feColorMatrix in="SourceAlpha" type="matrix" values="0 0 0 0 0 0 0 0 0 0 0 0 0 0 0 0 0 0 127 0" result="hardAlpha"/>
<feOffset dx="-1" dy="-4"/>
<feGaussianBlur stdDeviation="2"/>
<feComposite in2="hardAlpha" operator="out"/>
<feColorMatrix type="matrix" values="0 0 0 0 0 0 0 0 0 0 0 0 0 0 0 0 0 0 0.25 0"/>
<feBlend mode="normal" in2="BackgroundImageFix" result="effect1_dropShadow_21_8"/>
<feBlend mode="normal" in="SourceGraphic" in2="effect1_dropShadow_21_8" result="shape"/>
</filter>
<filter id="filter1_d_21_8" x="302" y="70" width="165" height="18" filterUnits="userSpaceOnUse" color-interpolation-filters="sRGB">
<feFlood flood-opacity="0" result="BackgroundImageFix"/>
<feColorMatrix in="SourceAlpha" type="matrix" values="0 0 0 0 0 0 0 0 0 0 0 0 0 0 0 0 0 0 127 0" result="hardAlpha"/>
<feOffset dx="2" dy="3"/>
<feGaussianBlur stdDeviation="2"/>
<feComposite in2="hardAlpha" operator="out"/>
<feColorMatrix type="matrix" values="0 0 0 0 0 0 0 0 0 0 0 0 0 0 0 0 0 0 0.25 0"/>
<feBlend mode="normal" in2="BackgroundImageFix" result="effect1_dropShadow_21_8"/>
<feBlend mode="normal" in="SourceGraphic" in2="effect1_dropShadow_21_8" result="shape"/>
</filter>
<filter id="filter2_d_21_8" x="22.35" y="21.1001" width="424.046" height="54.8999" filterUnits="userSpaceOnUse" color-interpolation-filters="sRGB">
<feFlood flood-opacity="0" result="BackgroundImageFix"/>
<feColorMatrix in="SourceAlpha" type="matrix" values="0 0 0 0 0 0 0 0 0 0 0 0 0 0 0 0 0 0 127 0" result="hardAlpha"/>
<feOffset dx="1" dy="4"/>
<feGaussianBlur stdDeviation="2"/>
<feComposite in2="hardAlpha" operator="out"/>
<feColorMatrix type="matrix" values="0 0 0 0 0 0 0 0 0 0 0 0 0 0 0 0 0 0 0.25 0"/>
<feBlend mode="normal" in2="BackgroundImageFix" result="effect1_dropShadow_21_8"/>
<feBlend mode="normal" in="SourceGraphic" in2="effect1_dropShadow_21_8" result="shape"/>
</filter>
</defs>
</svg>
