<svg width="215" height="386" viewBox="0 0 215 386" fill="none" xmlns="http://www.w3.org/2000/svg">
<path d="M44.0902 18.7241C43.8907 20.169 44.0104 21.6401 44.4409 23.0338C44.8715 24.4275 45.6024 25.7098 46.5822 26.7905C47.5619 27.8711 48.7667 28.7238 50.1116 29.2885C51.4565 29.8531 52.9089 30.116 54.3665 30.0587L63.925 50.759L77.9213 48.0184L64.0122 18.9751C63.7535 16.5329 62.608 14.2704 60.7927 12.6164C58.9774 10.9624 56.6183 10.0317 54.1627 10.0008C51.707 9.96985 49.3254 10.8408 47.469 12.4485C45.6125 14.0562 44.4103 16.2891 44.0902 18.724V18.7241Z" fill="#FFB6B6"/>
<path d="M140.922 97.06L101.922 77.769L74.4016 31.062L55.1656 40.367L80.1296 94.324L143.194 130.729L140.922 97.06Z" fill="#4236CD"/>
<path d="M52.8746 373.172L40.6146 373.171L34.7816 337.823L52.8766 337.824L52.8746 373.172Z" fill="#FFB6B6"/>
<path d="M56.0012 385.056L16.4705 385.054V384.554C16.4707 380.474 18.0919 376.56 20.9774 373.675C23.8629 370.789 27.7763 369.168 31.8569 369.168H31.858L56.002 369.169L56.0012 385.056Z" fill="black"/>
<path d="M175.25 350.686L166.696 359.468L137.304 338.984L149.929 326.022L175.25 350.686Z" fill="#FFB6B6"/>
<path d="M185.945 356.738L158.363 385.056L158.004 384.707C155.081 381.86 153.409 377.968 153.355 373.887C153.301 369.807 154.87 365.873 157.717 362.949L157.718 362.948L174.564 345.653L185.945 356.738Z" fill="black"/>
<path d="M68.0315 162.802H59.5521C37.5087 186.89 20.6824 215.274 10.1294 246.173L0 275.832L36.1021 351.422L58.6299 351.824L32.8819 271.572L58.8222 237.172L60.1299 306.324L143.622 350.087L160.332 325.402L92.3922 288.252L103.962 229.432C103.962 229.432 127.241 210.02 113.685 179.672L68.0315 162.802Z" fill="#2C1A1A"/>
<path d="M179.63 85.8239L144.394 70.3916L105.612 87.577C105.612 87.577 94.6299 93.8239 101.63 109.824L59.5521 162.802C59.5521 162.802 59.6299 162.824 112.512 179.672L160.223 137.656C167.468 131.276 173.028 123.209 176.413 114.169C179.798 105.128 180.903 95.3929 179.63 85.8239V85.8239Z" fill="#4236CD"/>
<path d="M173.717 69.936C187.281 69.936 198.278 58.9397 198.278 45.375C198.278 31.8103 187.281 20.814 173.717 20.814C160.152 20.814 149.156 31.8103 149.156 45.375C149.156 58.9397 160.152 69.936 173.717 69.936Z" fill="#FFB6B6"/>
<path d="M205.525 12.7815C199.888 8.19574 191.145 7.19447 185.326 11.5463C175.177 6.21936 161.461 8.99803 154.186 17.855C151.568 21.0422 149.713 25.354 151.008 29.2698C152.304 33.1856 157.89 35.4875 160.802 32.5665L160.75 33.7698C163.373 36.3964 165.192 39.7172 165.992 43.3418C166.793 46.9664 166.542 50.7442 165.268 54.231C163.995 57.7179 161.753 60.7688 158.806 63.0251C155.859 65.2814 152.328 66.6494 148.63 66.9681C156.679 70.2195 164.727 73.4708 172.775 76.7221C176.162 78.0902 179.656 79.4799 183.309 79.4612C186.961 79.4426 190.854 77.6681 192.271 74.302C193.29 77.4254 194.309 80.5488 195.328 83.6723C201.327 74.1281 206.261 63.955 210.043 53.3353C212.48 46.4896 214.449 39.3307 214.186 32.069C213.923 24.8074 211.161 17.3672 205.525 12.7815Z" fill="#9C7878"/>
<path d="M69.0902 8.72406C68.8907 10.169 69.0104 11.6401 69.4409 13.0338C69.8715 14.4275 70.6024 15.7098 71.5822 16.7905C72.5619 17.8711 73.7667 18.7238 75.1116 19.2885C76.4565 19.8531 77.9089 20.116 79.3665 20.0587L88.925 40.759L102.921 38.0184L89.0122 8.97507C88.7535 6.53289 87.608 4.27041 85.7927 2.6164C83.9774 0.962385 81.6183 0.0317449 79.1627 0.000797327C76.707 -0.0301503 74.3254 0.840751 72.469 2.44849C70.6125 4.05623 69.4103 6.28912 69.0902 8.724V8.72406Z" fill="#FFB6B6"/>
<path d="M165.922 87.06L126.922 67.769L99.4016 21.062L80.1656 30.367L105.13 84.324L168.194 120.729L165.922 87.06Z" fill="#4236CD"/>
</svg>
