<svg width="206" height="525" viewBox="0 0 206 525" fill="none" xmlns="http://www.w3.org/2000/svg">
<path d="M58.687 8.631C58.687 8.631 56.769 1.731 53.887 0V8.631C53.887 8.631 42.3791 6.90501 34.2271 15.531L41.899 17.257C41.899 17.257 30.63 20.997 28.233 37.108L33.033 34.808L45.98 62.427L54.132 47.467L70.4321 64.153L66.5961 54.947L72.83 57.824L68.514 50.344L87.6951 58.975L86.256 54.375L93.2841 66.151C93.2841 66.151 117.425 41.141 91.051 14.673C91.054 14.673 79.066 2.014 58.687 8.631Z" fill="#2F2E41"/>
<path d="M56.473 70.0801C56.473 70.0801 63.621 97.2441 61.473 100.818C59.325 104.392 82.203 123.693 82.203 123.693L104.363 119.404L105.793 88.6661C105.793 88.6661 85.777 71.5101 90.067 58.6431L56.473 70.0801Z" fill="#FFB9B9"/>
<path opacity="0.1" d="M56.473 70.0801C56.473 70.0801 63.621 97.2441 61.473 100.818C59.325 104.392 82.203 123.693 82.203 123.693L104.363 119.404L105.793 88.6661C105.793 88.6661 85.777 71.5101 90.067 58.6431L56.473 70.0801Z" fill="black"/>
<path d="M37.887 241.645C37.887 241.645 32.168 277.387 36.457 306.695C40.746 336.003 42.891 357.448 40.746 361.737C38.601 366.026 36.457 365.311 37.887 370.315C39.317 375.319 42.1759 373.174 39.3169 378.178C36.4579 383.182 37.173 391.76 37.173 393.904C37.173 396.048 33.599 442.513 37.173 447.517C40.747 452.521 42.173 451.806 42.173 451.806L46.462 477.54L69.337 473.966L65.763 450.376C65.763 450.376 74.341 446.087 70.763 443.228C67.185 440.369 65.044 440.369 67.189 440.369C69.334 440.369 72.908 439.654 70.048 438.224C67.188 436.794 69.3329 398.193 69.3329 398.193C69.3329 398.193 74.333 327.424 94.352 329.569C114.371 331.714 130.098 373.175 130.098 373.175L135.817 391.761C135.817 391.761 137.961 426.788 139.391 429.647C140.821 432.506 140.106 433.221 139.391 434.647C138.676 436.073 133.672 432.502 138.676 438.221C143.68 443.94 143.676 446.084 143.676 446.084L146.893 483.613L170.132 468.967V446.807C170.132 446.807 174.421 439.659 172.991 433.94C171.561 428.221 171.561 401.057 172.991 396.054C174.421 391.051 173.706 389.62 172.276 387.476C170.846 385.332 167.276 386.761 170.131 381.757C172.986 376.753 175.131 363.886 170.846 354.593C166.561 345.3 142.967 253.801 132.96 248.793C122.953 243.785 37.887 241.645 37.887 241.645Z" fill="#2F2E41"/>
<path d="M69.3401 461.814C69.3401 461.814 52.8991 458.955 52.1841 463.244C51.7914 466.807 51.7914 470.403 52.1841 473.966C52.1841 473.966 46.4651 474.681 47.1841 479.685C47.9031 484.689 48.6141 498.271 48.6141 498.271C48.6141 498.271 39.6791 519.359 44.6821 524.363C44.7321 524.413 54.553 524.006 60.198 524.006H80.7811C80.7811 524.006 83.6401 513.998 80.7811 512.569C77.9221 511.14 71.4881 498.269 72.2031 495.413C72.9181 492.557 72.2031 471.823 72.2031 471.823L69.0461 472.001L69.3401 461.814Z" fill="#3F3D56"/>
<path d="M152.976 474.681L144.398 481.115C144.398 481.115 147.972 493.267 145.828 495.415C143.684 497.563 139.037 522.222 143.328 523.651C147.619 525.08 174.066 522.936 174.066 522.936C174.066 522.936 203.732 524.008 204.446 522.579C205.16 521.15 206.591 512.571 198.013 509.712C189.435 506.853 184.431 507.568 181.572 498.989C178.713 490.41 172.279 477.544 172.279 477.544L170.849 461.818C170.849 461.818 162.271 463.248 160.841 463.248C159.411 463.248 152.263 466.822 152.978 469.682C153.413 471.32 153.412 473.043 152.976 474.681V474.681Z" fill="#3F3D56"/>
<path d="M68.625 79.019C85.0091 79.019 98.291 65.7371 98.291 49.353C98.291 32.9689 85.0091 19.687 68.625 19.687C52.2409 19.687 38.959 32.9689 38.959 49.353C38.959 65.7371 52.2409 79.019 68.625 79.019Z" fill="#FEA9A9"/>
<path d="M87.926 100.107L98.649 81.3648C98.649 81.3648 123.668 80.0908 125.098 82.9508C126.528 85.8108 138.68 227.351 138.68 227.351C138.68 227.351 144.399 235.214 140.824 240.218L137.25 245.218V255.226C137.25 255.226 119.379 269.526 95.075 266.663C70.771 263.8 40.033 250.937 40.033 250.937L46.467 210.906L45.752 92.9578L60.152 85.9378C60.152 85.9378 76.4869 97.2468 79.3459 100.821C82.2049 104.395 87.926 100.107 87.926 100.107Z" fill="#6C63FF"/>
<path d="M62.9061 100.107L59.689 81.1641L15.7261 112.264L40.0261 183.748C40.0261 183.748 25.014 210.912 27.874 220.92C30.734 230.928 32.163 245.939 32.163 245.939C32.163 245.939 70.7631 255.947 70.0491 250.939C69.3351 245.931 70.0491 223.775 70.0491 223.775C70.0491 223.775 82.549 131.201 76.298 117.084C70.047 102.967 62.9061 100.107 62.9061 100.107Z" fill="#E6E6E6"/>
<path d="M102.222 90.8142L95.431 77.5892C95.431 77.1752 143.68 83.8492 145.831 87.9542L140.109 198.04C140.109 198.04 140.824 213.766 144.398 218.055C147.972 222.344 147.257 229.492 145.828 230.207C144.399 230.922 120.809 238.07 120.809 238.07C120.809 238.07 97.934 198.754 100.079 151.57C102.224 104.386 102.222 90.8142 102.222 90.8142Z" fill="#E6E6E6"/>
<path d="M137.25 88.6691L144.821 87.0571C147.784 88.7243 150.14 91.2916 151.547 94.3871C153.692 99.3871 178.711 153.004 178.711 156.578C178.711 160.152 179.426 186.601 163.699 186.601C147.972 186.601 135.82 119.406 135.82 119.406L137.25 88.6691Z" fill="#E6E6E6"/>
<path d="M30.024 273.812L42.8911 293.112L50.0391 268.812L45.0391 261.664L30.024 273.812Z" fill="#FFB9B9"/>
<path d="M22.16 112.973L15.727 112.259L0 196.609L27.164 280.96L50.754 263.089L34.313 206.617L40.031 163.012L22.16 112.973Z" fill="#E6E6E6"/>
<path d="M99.5959 40.9828C95.6679 26.6648 83.384 16.2148 68.829 16.2148C63.7536 16.267 58.7668 17.5515 54.2978 19.9578C49.8288 22.3642 46.0113 25.8203 43.174 30.0288L50.514 44.0948L57.8329 32.0288L72.47 45.4868L69.0259 38.0618L74.626 40.3819L70.751 34.3488L87.9709 41.3098L86.679 37.5968L94.8589 48.2708C96.7603 46.067 98.3539 43.6153 99.5959 40.9828V40.9828Z" fill="#2F2E41"/>
<path opacity="0.1" d="M132.603 123.339L151.864 140.132L141.896 118.332L132.603 123.339Z" fill="black"/>
<path d="M124.382 120.837C124.382 120.837 115.089 92.2429 103.652 97.2469C92.215 102.251 107.941 132.274 107.941 132.274L117.949 138.708L124.382 120.837Z" fill="#FFB9B9"/>
<path d="M173.706 157.294L123.667 117.978L105.796 144.428C105.796 144.428 152.975 194.467 163.696 184.459C174.417 174.451 173.706 157.294 173.706 157.294Z" fill="#E6E6E6"/>
<path d="M61.4189 52.5786L60.2541 58.1242L60.0988 58.8544C60.0057 59.2923 60.0959 59.7493 60.3485 60.119V60.119C60.5089 60.3538 60.7276 60.5427 60.9832 60.6673L61.1365 60.7421V60.7421C61.8446 61.0872 62.64 61.2116 63.4197 61.0993L64.6976 60.9151L66.6772 60.6298" stroke="#3E3434" stroke-opacity="0.7"/>
<path d="M80.2908 48.6477C80.7176 48.964 81.0006 49.4658 80.8881 49.9851C80.8435 50.1912 80.7803 50.394 80.6991 50.5913C80.5096 51.0512 80.2256 51.4719 79.8631 51.8294C79.5006 52.187 79.0668 52.4743 78.5864 52.675C78.106 52.8756 77.5885 52.9858 77.0634 52.9991C76.5383 53.0124 76.0158 52.9286 75.5259 52.7525C75.036 52.5764 74.5882 52.3115 74.208 51.9728C73.8279 51.6341 73.5229 51.2283 73.3104 50.7785C73.1912 50.5262 73.1024 50.2627 73.0452 49.9931C72.9596 49.5894 73.1364 49.1872 73.4302 48.8974V48.8974C73.9703 48.3647 74.6929 48.0576 75.4513 48.0383L76.6701 48.0075L78.1478 47.97C78.9177 47.9505 79.672 48.189 80.2908 48.6477V48.6477Z" fill="#F8F8F8" fill-opacity="0.8"/>
<path d="M49.5201 49.0339C49.132 49.3967 48.9079 49.9274 49.0787 50.4305C49.1465 50.6303 49.2322 50.8246 49.3354 51.0113C49.5758 51.4467 49.9059 51.8324 50.3067 52.1465C50.7074 52.4605 51.1711 52.6966 51.6711 52.8414C52.1712 52.9862 52.6979 53.0368 53.2211 52.9904C53.7444 52.9439 54.2539 52.8013 54.7206 52.5707C55.1874 52.3401 55.6022 52.0259 55.9413 51.6462C56.2805 51.2665 56.5375 50.8287 56.6975 50.3577C56.7872 50.0934 56.8455 49.8216 56.8717 49.5473C56.9109 49.1364 56.6895 48.7569 56.3647 48.5024V48.5024C55.7675 48.0345 55.0147 47.8115 54.259 47.8786L53.0446 47.9864L51.5723 48.1171C50.8051 48.1852 50.0828 48.5079 49.5201 49.0339V49.0339Z" fill="#F8F8F8" fill-opacity="0.8"/>
<path d="M82.4321 48.4052C82.9969 48.4815 83.6249 48.3911 83.8419 47.8642C83.9205 47.6735 83.9692 47.461 83.9719 47.2496C83.9783 46.7288 83.6778 46.2197 83.3161 45.845C83.0176 45.5359 82.6205 45.2309 82.3266 45.002C81.8157 44.6041 81.4903 44.3273 80.6587 44.1013C79.8271 43.8754 78.5932 43.1972 77.6292 43.1944C76.6653 43.1917 75.5242 43.5662 74.6461 43.7873C73.7681 44.0083 73.0998 44.5792 72.5065 44.974C71.9132 45.3688 71.5125 45.8251 71.3384 46.3042C71.1643 46.7833 71.0026 47.9386 71.2871 48.3936V48.3936C71.926 48.6887 72.6666 48.6658 73.2861 48.3317L73.6469 48.1371C74.0568 47.9161 74.5125 47.7935 74.978 47.7791L77.0206 47.7158C77.1857 47.7107 77.351 47.7192 77.5148 47.7414L82.4321 48.4052Z" fill="#2F2E41"/>
<path d="M57.8426 48.5088C58.4116 48.5333 59.0285 48.3864 59.1968 47.8423C59.2577 47.6454 59.287 47.4296 59.2705 47.219C59.2298 46.6995 58.8838 46.2197 58.4891 45.8795C58.1638 45.5991 57.7408 45.3318 57.4274 45.1308C56.8823 44.7812 56.5331 44.5353 55.6843 44.3861C54.8355 44.2369 53.5448 43.6741 52.5844 43.7591C51.624 43.844 50.5215 44.3207 49.6671 44.6206C48.8126 44.9206 48.1988 45.5497 47.6438 45.9966C47.0888 46.4435 46.7312 46.9342 46.6013 47.427C46.4714 47.9197 46.4155 49.0844 46.7401 49.5114V49.5114C47.4034 49.747 48.1389 49.6568 48.7256 49.2679L49.0676 49.0411C49.4555 48.7839 49.898 48.6205 50.36 48.5639L52.3894 48.315C52.5533 48.2949 52.7186 48.2883 52.8836 48.2954L57.8426 48.5088Z" fill="#2F2E41"/>
<circle cx="76.5" cy="51" r="1.5" fill="black"/>
<path d="M73.5339 66.0701C73.3825 66.5336 73.1547 67.04 72.8563 67.4736C72.5565 67.9093 72.1978 68.2537 71.7908 68.423C71.6865 68.4664 71.5811 68.5106 71.4744 68.5554C70.1477 69.1122 68.6281 69.75 66.8679 69.75C65.1077 69.75 63.5881 69.1122 62.2614 68.5554C62.1547 68.5106 62.0493 68.4664 61.9451 68.423C61.1325 68.085 60.6511 67.2259 60.4167 66.4158C60.3606 66.2219 60.4165 66.0543 60.5365 65.9341C60.6605 65.8097 60.8592 65.7324 61.0835 65.7575L66.7041 66.3871C66.8169 66.3997 66.9309 66.3969 67.0429 66.3788L72.8802 65.4344C73.1113 65.397 73.3099 65.47 73.4297 65.5888C73.5446 65.7026 73.5997 65.8689 73.5339 66.0701Z" fill="url(#paint0_linear_23_90)" stroke="#D8B8B8" stroke-width="0.5"/>
<circle r="1.5" transform="matrix(-1 0 0 1 52.5 51)" fill="black"/>
<defs>
<linearGradient id="paint0_linear_23_90" x1="67" y1="64.5" x2="67" y2="70" gradientUnits="userSpaceOnUse">
<stop stop-color="white"/>
<stop offset="0.56182" stop-color="#9C1111"/>
<stop offset="1" stop-color="#E34748" stop-opacity="0.59"/>
</linearGradient>
</defs>
</svg>
