<svg width="206" height="525" viewBox="0 0 206 525" fill="none" xmlns="http://www.w3.org/2000/svg">
<path d="M58.687 8.631C58.687 8.631 56.769 1.731 53.887 0V8.631C53.887 8.631 42.3791 6.90501 34.2271 15.531L41.899 17.257C41.899 17.257 30.63 20.997 28.233 37.108L33.033 34.808L45.98 62.427L54.132 47.467L70.4321 64.153L66.5961 54.947L72.83 57.824L68.514 50.344L87.6951 58.975L86.256 54.375L93.2841 66.151C93.2841 66.151 117.425 41.141 91.051 14.673C91.054 14.673 79.066 2.014 58.687 8.631Z" fill="#2F2E41"/>
<path d="M56.473 70.0801C56.473 70.0801 63.621 97.2441 61.473 100.818C59.325 104.392 82.203 123.693 82.203 123.693L104.363 119.404L105.793 88.6661C105.793 88.6661 85.777 71.5101 90.067 58.6431L56.473 70.0801Z" fill="#FFB9B9"/>
<path opacity="0.1" d="M56.473 70.0801C56.473 70.0801 63.621 97.2441 61.473 100.818C59.325 104.392 82.203 123.693 82.203 123.693L104.363 119.404L105.793 88.6661C105.793 88.6661 85.777 71.5101 90.067 58.6431L56.473 70.0801Z" fill="black"/>
<path d="M37.887 241.645C37.887 241.645 32.168 277.387 36.457 306.695C40.746 336.003 42.891 357.448 40.746 361.737C38.601 366.026 36.457 365.311 37.887 370.315C39.317 375.319 42.1759 373.174 39.3169 378.178C36.4579 383.182 37.173 391.76 37.173 393.904C37.173 396.048 33.599 442.513 37.173 447.517C40.747 452.521 42.173 451.806 42.173 451.806L46.462 477.54L69.337 473.966L65.763 450.376C65.763 450.376 74.341 446.087 70.763 443.228C67.185 440.369 65.044 440.369 67.189 440.369C69.334 440.369 72.908 439.654 70.048 438.224C67.188 436.794 69.3329 398.193 69.3329 398.193C69.3329 398.193 74.333 327.424 94.352 329.569C114.371 331.714 130.098 373.175 130.098 373.175L135.817 391.761C135.817 391.761 137.961 426.788 139.391 429.647C140.821 432.506 140.106 433.221 139.391 434.647C138.676 436.073 133.672 432.502 138.676 438.221C143.68 443.94 143.676 446.084 143.676 446.084L146.893 483.613L170.132 468.967V446.807C170.132 446.807 174.421 439.659 172.991 433.94C171.561 428.221 171.561 401.057 172.991 396.054C174.421 391.051 173.706 389.62 172.276 387.476C170.846 385.332 167.276 386.761 170.131 381.757C172.986 376.753 175.131 363.886 170.846 354.593C166.561 345.3 142.967 253.801 132.96 248.793C122.953 243.785 37.887 241.645 37.887 241.645Z" fill="#2F2E41"/>
<path d="M69.3401 461.814C69.3401 461.814 52.8991 458.955 52.1841 463.244C51.7914 466.807 51.7914 470.403 52.1841 473.966C52.1841 473.966 46.4651 474.681 47.1841 479.685C47.9031 484.689 48.6141 498.271 48.6141 498.271C48.6141 498.271 39.6791 519.359 44.6821 524.363C44.7321 524.413 54.553 524.006 60.198 524.006H80.7811C80.7811 524.006 83.6401 513.998 80.7811 512.569C77.9221 511.14 71.4881 498.269 72.2031 495.413C72.9181 492.557 72.2031 471.823 72.2031 471.823L69.0461 472.001L69.3401 461.814Z" fill="#3F3D56"/>
<path d="M152.976 474.681L144.398 481.115C144.398 481.115 147.972 493.267 145.828 495.415C143.684 497.563 139.037 522.222 143.328 523.651C147.619 525.08 174.066 522.936 174.066 522.936C174.066 522.936 203.732 524.008 204.446 522.579C205.16 521.15 206.591 512.571 198.013 509.712C189.435 506.853 184.431 507.568 181.572 498.989C178.713 490.41 172.279 477.544 172.279 477.544L170.849 461.818C170.849 461.818 162.271 463.248 160.841 463.248C159.411 463.248 152.263 466.822 152.978 469.682C153.413 471.32 153.412 473.043 152.976 474.681V474.681Z" fill="#3F3D56"/>
<path d="M68.625 79.019C85.0091 79.019 98.291 65.7371 98.291 49.353C98.291 32.9689 85.0091 19.687 68.625 19.687C52.2409 19.687 38.959 32.9689 38.959 49.353C38.959 65.7371 52.2409 79.019 68.625 79.019Z" fill="#FFB9B9"/>
<path d="M87.926 100.107L98.649 81.3648C98.649 81.3648 123.668 80.0908 125.098 82.9508C126.528 85.8108 138.68 227.351 138.68 227.351C138.68 227.351 144.399 235.214 140.824 240.218L137.25 245.218V255.226C137.25 255.226 119.379 269.526 95.075 266.663C70.771 263.8 40.033 250.937 40.033 250.937L46.467 210.906L45.752 92.9578L60.152 85.9378C60.152 85.9378 76.4869 97.2468 79.3459 100.821C82.2049 104.395 87.926 100.107 87.926 100.107Z" fill="#6C63FF"/>
<path d="M62.9061 100.107L59.689 81.1641L15.7261 112.264L40.0261 183.748C40.0261 183.748 25.014 210.912 27.874 220.92C30.734 230.928 32.163 245.939 32.163 245.939C32.163 245.939 70.7631 255.947 70.0491 250.939C69.3351 245.931 70.0491 223.775 70.0491 223.775C70.0491 223.775 82.549 131.201 76.298 117.084C70.047 102.967 62.9061 100.107 62.9061 100.107Z" fill="#E6E6E6"/>
<path d="M102.222 90.8142L95.431 77.5892C95.431 77.1752 143.68 83.8492 145.831 87.9542L140.109 198.04C140.109 198.04 140.824 213.766 144.398 218.055C147.972 222.344 147.257 229.492 145.828 230.207C144.399 230.922 120.809 238.07 120.809 238.07C120.809 238.07 97.934 198.754 100.079 151.57C102.224 104.386 102.222 90.8142 102.222 90.8142Z" fill="#E6E6E6"/>
<path d="M137.25 88.6691L144.821 87.0571C147.784 88.7243 150.14 91.2916 151.547 94.3871C153.692 99.3871 178.711 153.004 178.711 156.578C178.711 160.152 179.426 186.601 163.699 186.601C147.972 186.601 135.82 119.406 135.82 119.406L137.25 88.6691Z" fill="#E6E6E6"/>
<path d="M30.024 273.812L42.8911 293.112L50.0391 268.812L45.0391 261.664L30.024 273.812Z" fill="#FFB9B9"/>
<path d="M22.16 112.973L15.727 112.259L0 196.609L27.164 280.96L50.754 263.089L34.313 206.617L40.031 163.012L22.16 112.973Z" fill="#E6E6E6"/>
<path d="M99.5959 40.9828C95.6679 26.6648 83.384 16.2148 68.829 16.2148C63.7536 16.267 58.7668 17.5515 54.2978 19.9578C49.8288 22.3642 46.0113 25.8203 43.174 30.0288L50.514 44.0948L57.8329 32.0288L72.47 45.4868L69.0259 38.0618L74.626 40.3819L70.751 34.3488L87.9709 41.3098L86.679 37.5968L94.8589 48.2708C96.7603 46.067 98.3539 43.6153 99.5959 40.9828V40.9828Z" fill="#2F2E41"/>
<path opacity="0.1" d="M132.603 123.339L151.864 140.132L141.896 118.332L132.603 123.339Z" fill="black"/>
<path d="M124.382 120.837C124.382 120.837 115.089 92.2429 103.652 97.2469C92.215 102.251 107.941 132.274 107.941 132.274L117.949 138.708L124.382 120.837Z" fill="#FFB9B9"/>
<path d="M173.706 157.294L123.667 117.978L105.796 144.428C105.796 144.428 152.975 194.467 163.696 184.459C174.417 174.451 173.706 157.294 173.706 157.294Z" fill="#E6E6E6"/>
</svg>
