<svg width="67" height="76" viewBox="0 0 67 76" fill="none" xmlns="http://www.w3.org/2000/svg">
<path d="M57.5246 4.78146C51.8879 0.195741 43.1454 -0.805528 37.3263 3.54626C27.1771 -1.78064 13.4614 0.998029 6.18591 9.85504C3.56775 13.0422 1.71287 17.354 3.00836 21.2698C4.30385 25.1856 9.89025 27.4875 12.8022 24.5665L12.7503 25.7698C15.3732 28.3964 17.1918 31.7172 17.9922 35.3418C18.7926 38.9664 18.5415 42.7442 17.2685 46.231C15.9955 49.7179 13.7534 52.7688 10.806 55.0251C7.85851 57.2814 4.32818 58.6494 0.629944 58.9681C8.6785 62.2195 16.727 65.4708 24.7753 68.7221C28.1619 70.0902 31.6564 71.4799 35.3085 71.4612C38.9607 71.4426 42.8537 69.6681 44.2709 66.302C45.29 69.4254 46.309 72.5488 47.3278 75.6723C53.3269 66.1281 58.2614 55.955 62.043 45.3353C64.4796 38.4896 66.4495 31.3307 66.1863 24.069C65.9232 16.8074 63.1613 9.36718 57.5246 4.78146Z" fill="#9C7878"/>
</svg>
